<?xml version="1.0" standalone="no"?>
<!DOCTYPE svg PUBLIC "-//W3C//DTD SVG 20010904//EN"
 "http://www.w3.org/TR/2001/REC-SVG-20010904/DTD/svg10.dtd">
<svg version="1.0" xmlns="http://www.w3.org/2000/svg"
 width="26.000000pt" height="26.000000pt" viewBox="0 0 26.000000 26.000000"
 preserveAspectRatio="xMidYMid meet">

<g transform="translate(0.000000,26.000000) scale(0.100000,-0.100000)"
fill="#000000" stroke="none">
<path d="M63 240 c-117 -71 -55 -255 80 -237 54 7 89 35 107 85 40 114 -84
215 -187 152z m77 -70 c0 -27 3 -30 30 -30 17 0 30 -4 30 -10 0 -5 -13 -10
-30 -10 -27 0 -30 -3 -30 -30 0 -16 -4 -30 -10 -30 -5 0 -10 14 -10 30 0 27
-3 30 -30 30 -16 0 -30 5 -30 10 0 6 14 10 30 10 27 0 30 3 30 30 0 17 5 30
10 30 6 0 10 -13 10 -30z"/>
</g>
</svg>
